<svg xmlns="http://www.w3.org/2000/svg" xmlns:xlink="http://www.w3.org/1999/xlink" width="1020" height="40" version="1.1"><defs><style type="text/css">.arrow{display:none}.arrow:target{display:inline}.default{stroke:#ee7100;fill:#ee7100}.default:hover{fill:#f5821b}.academy,.outline{stroke:#5d237a}.outline{fill:transparent}.academy{fill:#a4286a}.academy-outline{fill:transparent;stroke:#a4286a}.software{fill:#009288;stroke:#0075b3}.software-outline{fill:transparent;stroke:#009288}.review{fill:#009288;stroke:#77b227}.review-outline{fill:transparent;stroke:#009288}.about{fill:#a4286a;stroke:#d93f69}.about-outline{fill:transparent;stroke:#a4286a}.dimmed{stroke:#dcdcdc;fill:#dcdcdc}</style></defs><svg viewBox="0 0 1020 40"><g id="outline" class="arrow"><polygon points="0 0 1000 0 1020 20 1000 40 0 40" class="outline"/></g></svg><svg viewBox="0 0 1020 40"><g id="default" class="arrow"><polygon points="0 0 1000 0 1020 20 1000 40 0 40" class="default"/></g></svg><svg viewBox="0 0 1020 40"><g id="academy" class="arrow"><polygon points="0 0 1000 0 1020 20 1000 40 0 40" class="academy"/></g></svg><svg viewBox="0 0 1020 40"><g id="software" class="arrow"><polygon points="0 0 1000 0 1020 20 1000 40 0 40" class="software"/></g></svg><svg viewBox="0 0 1020 40"><g id="review" class="arrow"><polygon points="0 0 1000 0 1020 20 1000 40 0 40" class="review"/></g></svg><svg viewBox="0 0 1020 40"><g id="about" class="arrow"><polygon points="0 0 1000 0 1020 20 1000 40 0 40" class="about"/></g></svg><svg viewBox="0 0 1020 40"><g id="academy-outline" class="arrow"><polygon points="0 0 1000 0 1020 20 1000 40 0 40" class="academy-outline"/></g></svg><svg viewBox="0 0 1020 40"><g id="software-outline" class="arrow"><polygon points="0 0 1000 0 1020 20 1000 40 0 40" class="software-outline"/></g></svg><svg viewBox="0 0 1020 40"><g id="review-outline" class="arrow"><polygon points="0 0 1000 0 1020 20 1000 40 0 40" class="review-outline"/></g></svg><svg viewBox="0 0 1020 40"><g id="about-outline" class="arrow"><polygon points="0 0 1000 0 1020 20 1000 40 0 40" class="about-outline"/></g></svg><svg viewBox="0 0 1020 40"><g id="dimmed" class="arrow"><polygon points="0 0 1000 0 1020 20 1000 40 0 40" class="dimmed"/></g></svg></svg>