<svg xmlns="http://www.w3.org/2000/svg" xmlns:xlink="http://www.w3.org/1999/xlink" x="0" y="0" version="1.1" viewBox="0 0 463.4 379.9" xml:space="preserve" style="enable-background:new 0 0 463.4 379.9"><style type="text/css">.st0{fill:#fff}</style><g id="cart"><g id="Wagentje"><g><path d="M327.8,319.5c-16.7,0-30.2,13.6-30.2,30.2s13.6,30.2,30.2,30.2s30.2-13.6,30.2-30.2S344.4,319.5,327.8,319.5 z" class="st0"/><path d="M173.8,319.5c-16.7,0-30.2,13.6-30.2,30.2s13.6,30.2,30.2,30.2s30.2-13.6,30.2-30.2S190.5,319.5,173.8,319.5 z" class="st0"/></g><polygon points="463.4 59.4 416.3 59.4 370.2 185 145.6 185 83.1 0 0 0 0 38 48.6 38 139.1 302 354 302 354 267 173.6 267 161.3 231 401.6 231" class="st0"/></g></g></svg>