<?xml version="1.0" encoding="utf-8"?>
<!-- Generator: Adobe Illustrator 18.1.1, SVG Export Plug-In . SVG Version: 6.00 Build 0)  -->
<!DOCTYPE svg PUBLIC "-//W3C//DTD SVG 1.1//EN" "http://www.w3.org/Graphics/SVG/1.1/DTD/svg11.dtd" [
	<!ENTITY ns_flows "http://ns.adobe.com/Flows/1.0/">
	<!ENTITY ns_extend "http://ns.adobe.com/Extensibility/1.0/">
	<!ENTITY ns_ai "http://ns.adobe.com/AdobeIllustrator/10.0/">
	<!ENTITY ns_graphs "http://ns.adobe.com/Graphs/1.0/">
]>
<svg version="1.1" id="Yoast" xmlns:x="&ns_extend;" xmlns:i="&ns_ai;" xmlns:graph="&ns_graphs;"
	 xmlns="http://www.w3.org/2000/svg" xmlns:xlink="http://www.w3.org/1999/xlink" xmlns:a="http://ns.adobe.com/AdobeSVGViewerExtensions/3.0/"
	 x="0px" y="0px" viewBox="0 0 520 240" enable-background="new 0 0 520 240" xml:space="preserve">
<g>
	<path fill="#FFFFFF" d="M488.8,146V90.3h19.9V66.2h-19.9V37h-30.7v29.2h-15.6v24.1h15.6v52.5c0,29.8,20.8,47.5,42.7,51.2l9.2-24.7
		C497.2,167.7,488.9,158.1,488.8,146z"/>
	<path fill="#FFFFFF" d="M332.3,137.2V95.3c0-1.5-0.1-3-0.2-4.4c-2.7-33.8-50.6-33.7-87.8-20.7L255,91.9
		c24.2-11.5,38.7-8.5,43.7-2.9c0.1,0.1,0.3,0.3,0.4,0.4c0,0,0,0,0,0.1c2.6,3.5,2,9,2,13.3c-31.6,0-65.3,4.2-65.3,38.9
		c0,26.4,33,43.3,67.5,18.2l5.1,12.4h29.6C335.5,157.7,332.3,145.3,332.3,137.2z M301.4,136.9c-24.3,27.2-46.6,1.6-23.8-9.6
		c6.7-2.3,15.8-2.4,23.8-2.4V136.9z"/>
	<path fill="#FFFFFF" d="M380.3,93.1c0-10.3,16.5-15.1,42.5-3.2l9-21.8c-35-10.6-82.8-11.5-83.1,25.1c-0.1,17.5,11.1,27,27.3,33
		c11.2,4.2,27.4,6.3,27.4,15.3c-0.1,11.7-25.2,13.5-48-2.2l-9.2,23.7c31.2,15.5,89.2,16,88.9-22.9C434.6,101.4,380.3,108,380.3,93.1
		z"/>
	<path fill="#FFFFFF" d="M107.5,9.9L63,133.5L41.7,66.7H10l35.5,91.2c3,7.8,3,16.4,0,24.1c-4,10.2-10.6,18.9-26.7,21v27
		c31.3,0,48.3-19.3,63.4-61.5L141.5,9.9H107.5z"/>
</g>
<path fill="#FFFFFF" d="M175,62.5c-38.4,0-53.6,27.1-53.6,55.8c0,29.8,15,54.2,53.6,54.2c38.5,0,53.7-27.4,53.7-54.2
	C228.6,85.6,211.9,62.5,175,62.5z M175,149.1c-15.6,0-23.2-11.6-23.2-30.7S160,85.7,175,85.6c14.9,0,23,13.6,23,32.7
	S190.5,149.1,175,149.1z"/>
</svg>
