<?xml version="1.0" encoding="utf-8"?>
<!-- Generator: Adobe Illustrator 18.1.1, SVG Export Plug-In . SVG Version: 6.00 Build 0)  -->
<!DOCTYPE svg PUBLIC "-//W3C//DTD SVG 1.1//EN" "http://www.w3.org/Graphics/SVG/1.1/DTD/svg11.dtd" [
	<!ENTITY ns_flows "http://ns.adobe.com/Flows/1.0/">
	<!ENTITY ns_extend "http://ns.adobe.com/Extensibility/1.0/">
	<!ENTITY ns_ai "http://ns.adobe.com/AdobeIllustrator/10.0/">
	<!ENTITY ns_graphs "http://ns.adobe.com/Graphs/1.0/">
]>
<svg version="1.1" xmlns:x="&ns_extend;" xmlns:i="&ns_ai;" xmlns:graph="&ns_graphs;"
	 xmlns="http://www.w3.org/2000/svg" xmlns:xlink="http://www.w3.org/1999/xlink" xmlns:a="http://ns.adobe.com/AdobeSVGViewerExtensions/3.0/"
	 x="0px" y="0px" viewBox="0 0 554 124" enable-background="new 0 0 554 124" xml:space="preserve">
<g id="Adademy">
	<g>
		<path fill="#5D237A" d="M284,43.9h-6.6l-25.9,51.5l-5.3,0.9l-0.4,3.3h17.5l0.2-3.3l-6-0.9l5.8-11.9h20.8l1.7,12l-5.8,0.8l-0.2,3.3
			h18.3l0.3-3.3l-6.1-1L284,43.9z M283.6,79.1h-18.1l13.9-28.8L283.6,79.1z"/>
		<path fill="#5D237A" d="M320.3,57c-3.7,0-10.7,1.2-15.9,8.9c-3.5,5.3-5.3,11.3-5.3,17.8c0,5.5,1.3,9.8,3.9,12.7
			c2.3,2.5,5.4,3.8,9.1,3.8c0,0,0,0,0,0c4.9,0,10.2-2.5,13.4-6.3l0.2-0.2l-1.5-3.1l-0.4,0.3c-0.8,0.6-1.7,1.2-2.5,1.8
			c-2.5,1.7-5.2,2.6-7.5,2.6c-2.5,0-4.4-1-5.8-3c-3.1-4.7-3-17.1,1.6-24.5c3-4.8,6.7-5.8,9.4-5.8c2.5,0,5.2,1,7.2,2.7l0.5,0.4
			l1.7-6.2l-0.3-0.2C325.9,57.6,323.1,57,320.3,57z"/>
		<path fill="#5D237A" d="M364.4,93.6c-1.7,1.5-2.4,2-2.9,2c-0.1,0-0.3,0-0.4-0.1c-0.9-0.4-0.9-1,1.8-18.1c0.8-5.1,1.8-11.5,3-19.8
			l0.1-0.7l-4.8,1.4c-2.4-0.8-4.8-1.2-7-1.2c-7.9,0-14.9,4.8-19.3,13.2c-4.7,8.9-5.2,19.7-1.1,25.6c1.9,2.8,5,4.4,8.5,4.4
			c4.3,0,8.6-2.3,11.8-6.4c-0.2,1.7-0.3,3.7,0.9,5c0.8,0.9,2,1.3,3.6,1.3c3.1,0,6.7-2.8,7.5-4.5l0.1-0.2l-1.4-2.2L364.4,93.6z
			 M358.8,62.8l-3.6,24.1c-2.4,3.9-6.7,8.4-11.5,8.4c-1.7,0-3-0.7-4-2.1c-3.1-4.4-2-14-0.1-19.3c4.1-11.3,11.2-12.5,14.1-12.5
			C355.6,61.3,357.4,61.9,358.8,62.8z"/>
		<path fill="#5D237A" d="M399.3,40.9l-0.8,3.1l4.6,1.2l-1.9,12.7c-2-0.5-3.9-0.8-5.8-0.8c-15,0-23.3,16.1-23.3,27.2
			c0,5.1,1.3,9.3,3.6,12.1c2.1,2.5,5.1,3.8,8.4,3.8c4.2,0,8.5-2.1,11.7-5.6c-0.1,1.8,0.1,3.5,1.1,4.5c0.7,0.7,1.7,1.1,3.1,1.1
			c3.1,0,6.2-2.2,7.7-4.3l0.2-0.2l-1.4-2.2l-0.4,0.3c-1.7,1.5-2.7,1.9-3.2,1.9c-0.2,0-0.2,0-0.2,0c-0.6-0.4,0.4-6.9,3.3-26.2
			c1.1-7.3,2.5-16.6,4.2-28.5l0-0.3l-2-1L399.3,40.9z M400.4,63l-3.9,25.3c-2.2,3.4-6.7,7-11.2,7c-2.1,0-3.6-0.9-4.7-2.9
			c-2.6-4.6-2-12.7,0-18.4c4-11.5,11.2-12.7,14.1-12.7C396.9,61.3,399,61.9,400.4,63z"/>
		<path fill="#5D237A" d="M439.8,57.7c-1.4-0.5-3-0.8-4.6-0.8c-5.8,0-13.6,3.6-18,13.5c-1.9,4.3-2.9,8.8-2.9,13.5
			c0,10.2,5.5,16.3,14.8,16.3c4.3,0,10.8-2.8,14.2-7.6l0.2-0.2l-1.8-3.2l-0.4,0.4c-3.6,3.6-7.8,5.7-11.6,5.7h0c-2.4,0-4.5-0.9-6-2.5
			c-2-2.2-2.9-5.7-2.6-10.1c5.7-0.2,18.7-3.2,23.3-11.1c1.5-2.6,1.9-5.9,0.9-8.7C444.6,61.2,443.2,58.9,439.8,57.7z M421.3,78.7
			c0.8-7,4.9-17.5,13-17.5c2.3,0,4.1,1.5,4.7,3.8c0.7,2.9-0.4,7.3-6.1,10.4C429.3,77.3,425.4,78.4,421.3,78.7z"/>
		<path fill="#5D237A" d="M510,93.2c-1.5,1.5-2.9,2.4-3.6,2.4c-0.2,0-0.3,0-0.4-0.4c-0.2-0.8-0.2-3.3,1.2-11.2
			c0.2-1.4,0.5-2.8,0.8-4.2c1.4-7.7,2.9-15.7-0.9-20.2c-1.5-1.7-3.7-2.6-6.2-2.6c-4.8,0-10.1,3.2-14.4,8.6c-0.5-5.8-3.2-8.6-8.3-8.6
			c-1.9,0-8.5,0.7-15.3,8.9l0.8-8l-1.8-0.9l-7.9,1.6l-0.6,3.2l3.5,1.7l-4.7,36h6.4l3.6-27c4.7-7,10.6-10.1,14.1-10.1
			c1.3,0,2.3,0.4,2.9,1.2c1.9,2.6,0.8,10.2-1.2,24c-0.5,3.4-1.1,7.3-1.6,11.5l-0.1,0.5h6.5l0.3-2.4c1.4-10.3,3.3-24,3.4-25.5
			c1.6-2.3,7.1-9.1,12.8-9.1c1.1,0,1.9,0.3,2.5,1.1c2.5,3,0.8,11.8-0.6,19.6c-0.9,4.9-1.7,9.4-1.7,12.8c0,2.7,1.5,4.2,4.1,4.2
			c3,0,6.4-2.1,8.3-4.9l0.1-0.2l-1.4-2.3L510,93.2z"/>
		<path fill="#5D237A" d="M547.7,57c-0.9,0-1.7,0.3-2.3,0.9c-0.6,0.6-0.9,1.3-0.9,2.1c0,1.2,0.3,2,0.6,2.8c0.3,0.9,0.7,1.7,0.5,3.1
			c-0.9,8-10.7,27.5-13.3,32.5c-0.9-7.1-1.6-13-2.1-17.8c-2.5-21.4-2.6-22.2-5-23.3c-0.6-0.3-1.3-0.4-2-0.4c-3,0-6.4,2.4-7.6,4.6
			l-0.1,0.2l1.2,2.5l0.4-0.4c1.8-1.7,2.5-1.9,2.7-1.9l0.2,0c0.5,0,0.8,0,1.5,3.3c1,4.5,6.4,37.3,6.7,39.5
			c-3.1,8.2-8.2,12.1-15.6,12.1h-2.4v5.1h2.4c11.1,0,15.3-4.4,21-14.8l0.1-0.1c4.5-8.3,18.3-33.5,18.3-43.2
			C552.1,59.3,550.6,57,547.7,57z"/>
	</g>
	<rect x="210.4" y="116.9" fill="#77B227" width="288.9" height="5.1"/>
</g>
<g id="Yoast_PurpleDark">
	<g>
		<linearGradient id="SVGID_1_" gradientUnits="userSpaceOnUse" x1="218.922" y1="88.3004" x2="218.922" y2="14.7391">
			<stop  offset="0" style="stop-color:#1F003C"/>
			<stop  offset="0.1014" style="stop-color:#320B4F"/>
			<stop  offset="0.241" style="stop-color:#451662"/>
			<stop  offset="0.4039" style="stop-color:#531D70"/>
			<stop  offset="0.6099" style="stop-color:#5B2278"/>
			<stop  offset="1" style="stop-color:#5D237A"/>
			<a:midPointStop  offset="0" style="stop-color:#1F003C"/>
			<a:midPointStop  offset="0.18" style="stop-color:#1F003C"/>
			<a:midPointStop  offset="1" style="stop-color:#5D237A"/>
		</linearGradient>
		<path fill="url(#SVGID_1_)" d="M224.8,65.8V39.7h9.3V28.4h-9.3V14.7h-14.4v13.7h-7.3v11.3h7.3v24.6c0,14,9.7,22.3,20,24l4.3-11.6
			C228.7,76,224.9,71.5,224.8,65.8z"/>
		<linearGradient id="SVGID_2_" gradientUnits="userSpaceOnUse" x1="130.956" y1="78.0894" x2="130.956" y2="26.5311">
			<stop  offset="0" style="stop-color:#1F003C"/>
			<stop  offset="0.1014" style="stop-color:#320B4F"/>
			<stop  offset="0.241" style="stop-color:#451662"/>
			<stop  offset="0.4039" style="stop-color:#531D70"/>
			<stop  offset="0.6099" style="stop-color:#5B2278"/>
			<stop  offset="1" style="stop-color:#5D237A"/>
			<a:midPointStop  offset="0" style="stop-color:#1F003C"/>
			<a:midPointStop  offset="0.18" style="stop-color:#1F003C"/>
			<a:midPointStop  offset="1" style="stop-color:#5D237A"/>
		</linearGradient>
		<path fill="url(#SVGID_2_)" d="M152.2,61.7V42.1c0-0.7,0-1.4-0.1-2c-1.2-15.8-23.7-15.8-41.1-9.7l5,10.1c11.3-5.4,18.1-4,20.5-1.3
			c0.1,0.1,0.1,0.1,0.2,0.2c0,0,0,0,0,0c1.2,1.6,0.9,4.2,0.9,6.2c-14.8,0-30.6,2-30.6,18.2c0,12.4,15.5,20.3,31.7,8.5l2.4,5.8h13.9
			C153.7,71.3,152.2,65.5,152.2,61.7z M137.7,61.5c-11.4,12.8-21.8,0.7-11.1-4.5c3.1-1.1,7.4-1.1,11.1-1.1V61.5z"/>
		<linearGradient id="SVGID_3_" gradientUnits="userSpaceOnUse" x1="179.1023" y1="78.2925" x2="179.1023" y2="26.266">
			<stop  offset="0" style="stop-color:#1F003C"/>
			<stop  offset="0.1014" style="stop-color:#320B4F"/>
			<stop  offset="0.241" style="stop-color:#451662"/>
			<stop  offset="0.4039" style="stop-color:#531D70"/>
			<stop  offset="0.6099" style="stop-color:#5B2278"/>
			<stop  offset="1" style="stop-color:#5D237A"/>
			<a:midPointStop  offset="0" style="stop-color:#1F003C"/>
			<a:midPointStop  offset="0.18" style="stop-color:#1F003C"/>
			<a:midPointStop  offset="1" style="stop-color:#5D237A"/>
		</linearGradient>
		<path fill="url(#SVGID_3_)" d="M174.3,41c0-4.8,7.7-7.1,19.9-1.5l4.2-10.2c-16.4-5-38.8-5.4-38.9,11.8
			c-0.1,8.2,5.2,12.6,12.8,15.5c5.3,2,12.9,3,12.8,7.2c0,5.5-11.8,6.3-22.5-1l-4.3,11.1c14.6,7.3,41.8,7.5,41.6-10.8
			C199.8,44.9,174.3,48,174.3,41z"/>
		<linearGradient id="SVGID_4_" gradientUnits="userSpaceOnUse" x1="32.6989" y1="-0.7752" x2="32.6989" y2="80.8076">
			<stop  offset="0" style="stop-color:#77B227"/>
			<stop  offset="0.4669" style="stop-color:#75B027"/>
			<stop  offset="0.635" style="stop-color:#6EAB27"/>
			<stop  offset="0.7549" style="stop-color:#63A027"/>
			<stop  offset="0.8518" style="stop-color:#529228"/>
			<stop  offset="0.9339" style="stop-color:#3C7F28"/>
			<stop  offset="1" style="stop-color:#246B29"/>
			<a:midPointStop  offset="0" style="stop-color:#77B227"/>
			<a:midPointStop  offset="0.87" style="stop-color:#77B227"/>
			<a:midPointStop  offset="1" style="stop-color:#246B29"/>
		</linearGradient>
		<path fill="url(#SVGID_4_)" d="M47.6,2L26.7,59.9l-10-31.3H1.9l16.6,42.7c1.4,3.6,1.4,7.7,0,11.3c-1.9,4.8-5,8.8-12.5,9.9v12.7
			c14.7,0,22.6-9,29.7-28.8L63.5,2H47.6z"/>
	</g>
	<linearGradient id="SVGID_5_" gradientUnits="userSpaceOnUse" x1="78.8377" y1="78.2625" x2="78.8377" y2="26.6869">
		<stop  offset="0" style="stop-color:#1F003C"/>
		<stop  offset="0.1014" style="stop-color:#320B4F"/>
		<stop  offset="0.241" style="stop-color:#451662"/>
		<stop  offset="0.4039" style="stop-color:#531D70"/>
		<stop  offset="0.6099" style="stop-color:#5B2278"/>
		<stop  offset="1" style="stop-color:#5D237A"/>
		<a:midPointStop  offset="0" style="stop-color:#1F003C"/>
		<a:midPointStop  offset="0.18" style="stop-color:#1F003C"/>
		<a:midPointStop  offset="1" style="stop-color:#5D237A"/>
	</linearGradient>
	<path fill="url(#SVGID_5_)" d="M78.8,26.7c-18,0-25.1,12.7-25.1,26.2c0,14,7,25.4,25.1,25.4c18,0,25.2-12.8,25.2-25.4
		C103.9,37.5,96.1,26.7,78.8,26.7z M78.8,67.2c-7.3,0-10.9-5.4-10.9-14.4s3.9-15.3,10.9-15.3c7,0,10.8,6.4,10.8,15.3
		S86.1,67.2,78.8,67.2z"/>
</g>
<g id="Yoast">
</g>
</svg>
