<?xml version="1.0" encoding="utf-8"?>
<!-- Generator: Adobe Illustrator 21.1.0, SVG Export Plug-In . SVG Version: 6.00 Build 0)  -->
<svg version="1.1" id="Laag_1" xmlns="http://www.w3.org/2000/svg" xmlns:xlink="http://www.w3.org/1999/xlink" x="0px" y="0px"
	 viewBox="0 0 1214 222" enable-background="new 0 0 1214 222" xml:space="preserve">
<g id="Yoast">
	<g>
		
			<linearGradient id="SVGID_1_" gradientUnits="userSpaceOnUse" x1="466.05" y1="72.85" x2="466.05" y2="230.75" gradientTransform="matrix(1 0 0 -1 0 258.3)">
			<stop  offset="0" style="stop-color:#570732"/>
			<stop  offset="3.755289e-02" style="stop-color:#610B39"/>
			<stop  offset="0.1547" style="stop-color:#79164B"/>
			<stop  offset="0.2866" style="stop-color:#8C1E59"/>
			<stop  offset="0.4398" style="stop-color:#9A2463"/>
			<stop  offset="0.6334" style="stop-color:#A22768"/>
			<stop  offset="1" style="stop-color:#A4286A"/>
		</linearGradient>
		<path fill="url(#SVGID_1_)" d="M478.7,137.1v-56h20V56.8h-20V27.6h-30.9v29.3h-15.7v24.3h15.7V134c0,30,20.9,47.8,43,51.5
			l9.2-24.8C487.1,159,478.8,149.4,478.7,137.1z"/>
		
			<linearGradient id="SVGID_2_" gradientUnits="userSpaceOnUse" x1="277.2" y1="94.8493" x2="277.2" y2="205.5191" gradientTransform="matrix(1 0 0 -1 0 258.3)">
			<stop  offset="0" style="stop-color:#570732"/>
			<stop  offset="3.755289e-02" style="stop-color:#610B39"/>
			<stop  offset="0.1547" style="stop-color:#79164B"/>
			<stop  offset="0.2866" style="stop-color:#8C1E59"/>
			<stop  offset="0.4398" style="stop-color:#9A2463"/>
			<stop  offset="0.6334" style="stop-color:#A22768"/>
			<stop  offset="1" style="stop-color:#A4286A"/>
		</linearGradient>
		<path fill="url(#SVGID_2_)" d="M322.8,128.2V86.2c0-1.5-0.1-3-0.2-4.4c-2.7-34-51-33.9-88.3-20.9L245,82.7
			c24.3-11.6,38.9-8.6,44-2.9c0.1,0.1,0.3,0.3,0.4,0.4c0,0,0,0,0,0.1c2.6,3.5,2,9,2,13.4c-31.8,0-65.7,4.2-65.7,39.1
			c0,26.5,33.2,43.6,68,18.3l5.2,12.4h29.8C325.9,149,322.8,136.5,322.8,128.2z M291.6,128c-24.5,27.4-46.9,1.6-23.9-9.6
			c6.8-2.3,15.9-2.4,23.9-2.4V128z"/>
		
			<linearGradient id="SVGID_3_" gradientUnits="userSpaceOnUse" x1="380.7006" y1="94.3174" x2="380.7006" y2="206.0404" gradientTransform="matrix(1 0 0 -1 0 258.3)">
			<stop  offset="0" style="stop-color:#570732"/>
			<stop  offset="3.755289e-02" style="stop-color:#610B39"/>
			<stop  offset="0.1547" style="stop-color:#79164B"/>
			<stop  offset="0.2866" style="stop-color:#8C1E59"/>
			<stop  offset="0.4398" style="stop-color:#9A2463"/>
			<stop  offset="0.6334" style="stop-color:#A22768"/>
			<stop  offset="1" style="stop-color:#A4286A"/>
		</linearGradient>
		<path fill="url(#SVGID_3_)" d="M370.3,84c0-10.4,16.6-15.2,42.8-3.3l9.1-22c-35.2-10.6-83.3-11.6-83.6,25.2
			c-0.1,17.7,11.2,27.2,27.5,33.2c11.3,4.2,27.6,6.4,27.6,15.4c-0.1,11.8-25.3,13.6-48.4-2.3l-9.3,23.8
			c31.4,15.6,89.7,16.1,89.4-23.1C425,92.2,370.3,99,370.3,84z"/>
		
			<linearGradient id="SVGID_4_" gradientUnits="userSpaceOnUse" x1="66.15" y1="264.1095" x2="66.15" y2="88.9164" gradientTransform="matrix(1 0 0 -1 0 258.3)">
			<stop  offset="0" style="stop-color:#77B227"/>
			<stop  offset="0.4669" style="stop-color:#75B027"/>
			<stop  offset="0.635" style="stop-color:#6EAB27"/>
			<stop  offset="0.7549" style="stop-color:#63A027"/>
			<stop  offset="0.8518" style="stop-color:#529228"/>
			<stop  offset="0.9339" style="stop-color:#3C7F28"/>
			<stop  offset="1" style="stop-color:#246B29"/>
		</linearGradient>
		<path fill="url(#SVGID_4_)" d="M98.2,0.2L53.4,124.5L31.9,57.3H0l35.7,91.8c3,7.8,3,16.5,0,24.3c-4,10.2-10.6,19-26.8,21.2v27.2
			c31.5,0,48.6-19.4,63.8-61.9L132.3,0.2H98.2z"/>
	</g>
	
		<linearGradient id="SVGID_5_" gradientUnits="userSpaceOnUse" x1="165.2002" y1="94.35" x2="165.2002" y2="205.15" gradientTransform="matrix(1 0 0 -1 0 258.3)">
		<stop  offset="0" style="stop-color:#570732"/>
		<stop  offset="3.755289e-02" style="stop-color:#610B39"/>
		<stop  offset="0.1547" style="stop-color:#79164B"/>
		<stop  offset="0.2866" style="stop-color:#8C1E59"/>
		<stop  offset="0.4398" style="stop-color:#9A2463"/>
		<stop  offset="0.6334" style="stop-color:#A22768"/>
		<stop  offset="1" style="stop-color:#A4286A"/>
	</linearGradient>
	<path fill="url(#SVGID_5_)" d="M165.2,53.2c-38.6,0-54,27.3-54,56.2c0,30,15.1,54.6,54,54.6c38.7,0,54.1-27.6,54-54.6
		C219.1,76.5,202.4,53.2,165.2,53.2z M165.2,140.2c-15.7,0-23.4-11.7-23.4-30.9s8.3-32.9,23.4-32.9c15,0,23.2,13.7,23.2,32.9
		S180.9,140.2,165.2,140.2z"/>
	<g>
		<path fill="#570732" d="M577.2,145.4c0,5.6-2,10-6,13.1c-4,3.2-9.6,4.8-16.7,4.8c-7.1,0-12.9-1.1-17.4-3.3v-9.7
			c2.9,1.3,5.9,2.4,9.1,3.2c3.2,0.8,6.2,1.2,9,1.2c4.1,0,7.1-0.8,9-2.3s2.9-3.6,2.9-6.2c0-2.3-0.9-4.3-2.7-6
			c-1.8-1.6-5.4-3.6-11-5.8c-5.7-2.3-9.8-5-12.1-7.9c-2.3-3-3.5-6.5-3.5-10.7c0-5.2,1.9-9.4,5.6-12.4c3.7-3,8.7-4.5,15-4.5
			c6,0,12,1.3,17.9,3.9l-3.3,8.4c-5.6-2.3-10.6-3.5-14.9-3.5c-3.3,0-5.8,0.7-7.6,2.2c-1.7,1.4-2.6,3.4-2.6,5.7c0,1.6,0.3,3,1,4.2
			s1.8,2.3,3.4,3.3c1.6,1,4.4,2.4,8.5,4.1c4.6,1.9,8,3.7,10.1,5.4c2.1,1.7,3.7,3.5,4.7,5.6C576.7,140,577.2,142.5,577.2,145.4z"/>
		<path fill="#570732" d="M624,162.4h-35.5V99.7H624v8.7h-25.2v17.1h23.6v8.6h-23.6v19.7H624V162.4z"/>
		<path fill="#570732" d="M692.3,131c0,10.2-2.6,18.1-7.7,23.8c-5.1,5.7-12.3,8.5-21.7,8.5c-9.5,0-16.7-2.8-21.8-8.4
			s-7.6-13.6-7.6-24s2.6-18.3,7.7-23.9c5.1-5.5,12.4-8.3,21.9-8.3c9.3,0,16.5,2.8,21.6,8.5C689.8,112.8,692.3,120.7,692.3,131z
			 M644.5,131c0,7.7,1.6,13.6,4.7,17.6c3.1,4,7.7,6,13.9,6c6.1,0,10.7-2,13.8-5.9s4.7-9.8,4.7-17.6c0-7.7-1.5-13.5-4.6-17.5
			s-7.7-6-13.8-6c-6.2,0-10.8,2-13.9,6C646,117.5,644.5,123.3,644.5,131z"/>
		<path fill="#570732" d="M748.7,122.5h-11.6v39.8H727v-39.8h-7.8v-4.7l7.8-3.1v-3.1c0-5.6,1.3-9.8,3.9-12.5
			c2.6-2.7,6.7-4.1,12.1-4.1c3.5,0,7,0.6,10.5,1.8l-2.7,7.6c-2.5-0.8-4.9-1.2-7.1-1.2c-2.3,0-4,0.7-5,2.1s-1.6,3.5-1.6,6.4v3.1h11.6
			V122.5z"/>
		<path fill="#570732" d="M798,138.5c0,7.8-2,13.8-6,18.1c-4,4.3-9.5,6.5-16.6,6.5c-4.4,0-8.4-1-11.8-3c-3.4-2-6-4.9-7.9-8.6
			c-1.8-3.7-2.7-8.1-2.7-13c0-7.7,2-13.7,5.9-18s9.5-6.5,16.7-6.5c6.9,0,12.3,2.2,16.3,6.6C796,125.2,798,131,798,138.5z
			 M763.5,138.5c0,11,4,16.4,12.1,16.4c8,0,12-5.5,12-16.4c0-10.8-4-16.3-12.1-16.3c-4.2,0-7.3,1.4-9.2,4.2
			C764.4,129.4,763.5,133.4,763.5,138.5z"/>
		<path fill="#570732" d="M832.8,114.1c2,0,3.7,0.1,5,0.4l-1,9.4c-1.4-0.3-2.9-0.5-4.5-0.5c-4,0-7.3,1.3-9.8,3.9
			c-2.5,2.6-3.8,6-3.8,10.3v24.8h-10.1v-47.5h7.9l1.3,8.4h0.5c1.6-2.8,3.6-5.1,6.2-6.7C827.2,115,829.9,114.1,832.8,114.1z"/>
		<g>
			<path fill="#570732" d="M941.3,111.3c-1.5,0-2.7,0.4-3.5,1.2c-0.8,0.8-1.2,1.8-1.2,2.9c0,1,0.3,2.2,0.8,3.6
				c0.4,1.1,0.6,2.3,0.5,3.5c-0.7,4.5-2.2,9.3-4.5,14.3c-1.2,2.7-3.4,6.3-6.3,10.8l-4.6,6.1l-0.7-6.6l-3.3-28.9
				c-0.1-0.9-0.2-1.8-0.5-2.5c-0.7-2.8-2.8-4.3-5.9-4.3c-1.1,0-2.2,0.2-3.3,0.6c-2.5,1.1-4.3,2.6-5.4,4.4l-0.2,0.4l-0.1,0.1l0.1,0.2
				l1.6,3.4l0.2,0.4l0.3-0.3l2.2-1.8c0.3-0.2,0.6-0.4,1-0.4s0.8,0.8,1,2.1l6.8,43.6v0.3h0.3l6.4-0.6h0.1l0.1-0.1l10.5-14.1
				c3.5-5.2,6.4-10,8.5-14.3c1.2-2.6,2.3-5.1,3.1-7.6c0.8-2.5,1.3-5,1.3-7.4s-0.4-4.5-1.3-6.1C944.4,112.3,943,111.3,941.3,111.3z
				 M908.1,118.3c-0.1,0-0.1,0-0.2,0C908,118.3,908.1,118.3,908.1,118.3z"/>
			<path fill="#570732" d="M980.3,112.2c-1.6-0.6-3.6-0.9-5.9-0.9c-2.3,0-4.6,0.4-6.8,1.2c-6.6,2.4-11.7,7.6-15.1,15.3
				c-2.4,5.2-3.6,10.7-3.6,16.4c0,8.8,3.2,14.9,9.5,18.2c2.3,1.2,5.3,1.8,8.9,1.8c3.6,0,7.6-1.3,11.8-3.9c2.2-1.4,4.1-3.2,5.7-5.4
				l0.3-0.4l0.1-0.2l-0.1-0.2l-2.4-4.3l-0.2-0.4l-0.3,0.3l-0.7,0.7c-4.4,4.4-9.1,6.6-13.9,6.6c-2.5,0-4.4-0.8-6-2.4
				c-0.7-0.7-1.3-1.6-1.8-2.6s-0.9-2.1-1.1-3.2c-0.3-1.1-0.4-2.1-0.4-2.9c0-0.8-0.1-1.5-0.1-2.1c0-0.3,0-0.5,0-0.8
				c3.2-0.2,6.8-0.9,10.8-2.1c2.2-0.7,4.5-1.5,6.7-2.6s4.3-2.3,6-3.8c1.8-1.5,3.3-3.2,4.4-5.1c1.2-2,1.8-4.4,1.8-7.3
				c0-3-1.1-5.6-3.3-7.7C983.4,113.8,982,112.8,980.3,112.2z M962.9,124.7c0.8-1.4,1.8-2.6,2.8-3.7c1-1,2.2-1.9,3.4-2.5
				s2.6-0.9,4.3-0.9c1.5,0,2.7,0.5,3.7,1.5s1.5,2.3,1.5,4c0,1.8-0.3,3.3-0.9,4.4c-1.2,2.3-3.3,4.3-6.2,5.9c-4,2.2-8.3,3.5-12.9,3.8
				c0.4-2.7,1.1-5.5,2.2-8.2C961.3,127.5,962.1,126,962.9,124.7z"/>
			<path fill="#570732" d="M1024,121.7l0.4,0.2l0.1-0.4l1.8-8.6v-0.2l-0.1-0.1l-0.3-0.3c-0.7-0.6-1.8-0.8-3.5-0.8
				c-3.8,0-7.4,1.5-10.9,4.4c-1.4,1.2-2.6,2.4-3.7,3.8l0.8-6.7v-0.2l-0.2-0.1l-2.4-1.2h-0.1h-0.1l-9.9,2h-0.2v0.2l-0.8,4.2v0.2
				l0.2,0.1l4,1.9l-5.7,43.1v0.4h0.4h8.2h0.3v-0.3l4.3-32c1.5-3.3,3.6-6,6.2-7.9c1.2-0.9,2.4-1.5,3.6-1.9c1.2-0.4,2.5-0.6,4-0.6
				c1.4,0,2.4,0.2,3.1,0.5L1024,121.7z"/>
			<path fill="#570732" d="M1067.2,111.5c-1.2,0-2.3,0.4-3.1,1.2c-0.9,0.8-1.3,1.8-1.3,3c0,1,0.1,1.8,0.3,2.3l0.8,2.1
				c0.3,0.7,0.4,1.6,0.2,2.6c-0.6,5.5-2.7,12-6.2,19.4l-2.4,5.2c-0.6,1.3-1.1,2.2-1.4,2.8l-5,9.5l-0.8-8.4l-4.3-33
				c-0.4-2.4-1-3.9-1.6-4.8c-0.5-0.7-1.2-1.2-1.9-1.5c-0.8-0.3-1.7-0.5-2.9-0.5c-1.2,0-2.3,0.3-3.4,0.7c-2.8,1.3-4.8,3-5.9,5
				l-0.2,0.4l-0.1,0.1l0.1,0.1l1.7,3.4l0.2,0.4l0.3-0.3l0.8-0.7c2.1-2,2.8-2.1,2.8-2.1c0.2,0,0.4,0,0.5,0.2c0.1,0.1,0.3,0.5,0.7,2
				l7.8,46v0.3h0.3h1.1c-1.8,3.5-3.9,6.3-6.3,8.4c-1.2,1-2.3,1.7-3.5,2.1c-1.1,0.4-2.3,0.6-3.5,0.6c-1.3,0-2.6-0.2-4-0.6
				c-0.6-0.2-1-0.4-1.3-0.5c-0.4-0.2-0.8-0.3-1-0.4l-0.8-0.3l-0.3-0.1l-0.1,0.3l-2,7l-0.1,0.3l0.3,0.1l0.7,0.2
				c0.9,0.3,2.1,0.6,3.6,0.9c0.7,0.1,1.4,0.2,2.1,0.3s1.8,0.1,3.1,0.1c1.4,0,3-0.3,4.7-0.8c4.3-1.4,7.7-3.8,10.1-7.2
				c4.1-4.9,9.4-13.9,15.9-26.7l4.8-9.1c4.3-8.6,6.4-15.7,6.4-21.1C1073,113,1069.9,111.5,1067.2,111.5z M1029.6,178.1
				c0.4,0,0.9,0.1,1.3,0.1C1030.5,178.2,1030.1,178.1,1029.6,178.1z M1032.8,178c-0.2,0-0.4,0-0.7,0.1
				C1032.4,178.1,1032.6,178.1,1032.8,178z M1029,178c-0.7-0.1-1.4-0.3-2.1-0.5C1027.6,177.9,1028.3,178,1029,178z"/>
			<path fill="#570732" d="M1107.4,112.8c-2.2-0.9-4.6-1.4-7.3-1.4c-2.7,0-5.2,0.4-7.4,1.3c-4.4,1.7-8.1,4.6-11.1,8.8
				c-4.4,6.2-6.7,13.3-6.7,21.2c0,10.5,3.4,17.3,10.1,20.2h0.1l0,0c2.2,0.9,4.6,1.4,7.3,1.4c2.7,0,5.2-0.4,7.5-1.3
				c4.4-1.7,8.1-4.7,11.1-8.9c4.4-6.2,6.7-13.3,6.7-21.2c0-6.9-1.5-12.3-4.6-16C1111.4,115.2,1109.6,113.8,1107.4,112.8z
				 M1108.2,133c0,6.1-1.2,11.7-3.6,16.6c-2.7,5.6-6.3,8.4-10.9,8.4c-6.4,0-9.6-4.9-9.6-15.1c0-1.7,0.1-3.5,0.3-5.3
				c0.9-6.9,2.9-12.2,6.1-15.8c2.3-2.7,5-4,8.1-4C1105,117.8,1108.2,122.8,1108.2,133z"/>
			<path fill="#570732" d="M1165.4,155l-0.2-0.3l-0.3,0.3l-0.7,0.6c-1.7,1.5-2.7,1.9-3.1,2c-0.1-0.3-0.2-1-0.1-2.9
				c0.1-1.5,0.8-6.2,2.2-13.9c0.2-1.2,0.6-3.4,1.3-6.7c0.7-3.4,1-6.4,1-9c0-4.8-1-8.4-2.9-10.6c-1-1.1-2.1-2-3.5-2.5
				c-1.3-0.5-2.8-0.7-4.3-0.7c-1.9,0-3.8,0.4-5.7,1.1c-4.4,1.6-8.6,4.4-12.3,8.5l0.8-8v-0.2l-0.2-0.1l-2.4-1.2h-0.1h-0.1l-9.8,2
				h-0.2v0.2l-0.8,4.2v0.2l0.2,0.1l4,1.9l-5.7,43.1v0.4h0.4h8.2h0.3v-0.3l4.3-32.4c2.2-3.2,4.9-6,8-8.3c1.5-1.1,2.9-2,4.4-2.6
				c1.4-0.6,2.9-0.9,4.4-0.9c1.4,0,2.4,0.4,3,1.2c0.4,0.5,0.6,1.1,0.8,1.9c0.2,0.9,0.3,2.4,0.3,4.6c0,2.1-0.5,6.1-1.6,11.9
				l-2.2,12.1c-0.2,1.4-0.4,2.7-0.6,4.1c-0.2,1.3-0.3,2.3-0.3,3c0,0.6,0,1,0,1.3c0,3.5,2,5.5,5.6,5.5c1.3,0,2.5-0.2,3.6-0.7
				c2.8-1.1,4.8-2.7,6.2-4.7l0.3-0.4l0.1-0.2l-0.1-0.2L1165.4,155z M1155.7,111.8c0.2,0,0.5,0,0.7,0.1
				C1156.1,111.8,1155.9,111.8,1155.7,111.8z M1155.2,111.8c-0.2,0-0.5,0-0.7,0h0.1C1154.8,111.8,1155,111.8,1155.2,111.8z
				 M1158.9,112.3c-0.3-0.1-0.6-0.2-1-0.3C1158.2,112.2,1158.5,112.2,1158.9,112.3z M1157.5,112.1c-0.2-0.1-0.5-0.1-0.7-0.1
				C1157.1,112,1157.3,112,1157.5,112.1z M1153.8,111.8c-0.2,0-0.4,0-0.6,0C1153.4,111.8,1153.6,111.8,1153.8,111.8z M1152.4,111.8
				c-0.2,0-0.4,0-0.6,0.1C1152,112,1152.2,112,1152.4,111.8z M1150.9,112.2c-0.2,0-0.3,0.1-0.5,0.1
				C1150.6,112.2,1150.8,112.2,1150.9,112.2z"/>
			<path fill="#570732" d="M1193.1,141.4c2.2-0.7,4.5-1.5,6.7-2.6s4.3-2.3,6-3.8c1.8-1.5,3.3-3.2,4.4-5.1c1.2-2,1.8-4.4,1.8-7.3
				c0-3-1.1-5.6-3.3-7.7c-1.1-1.1-2.5-1.9-4.2-2.5c-1.6-0.6-3.6-0.9-5.9-0.9s-4.6,0.4-6.8,1.2c-6.6,2.4-11.7,7.6-15.1,15.3
				c-2.4,5.2-3.6,10.7-3.6,16.4c0,8.8,3.2,14.9,9.5,18.2c2.3,1.2,5.3,1.8,8.9,1.8s7.6-1.3,11.8-3.9c2.2-1.4,4.1-3.2,5.7-5.4l0.3-0.4
				l0.1-0.2l-0.1-0.2l-2.4-4.3l-0.2-0.4l-0.3,0.3l-0.7,0.7c-4.4,4.4-9.1,6.6-13.9,6.6c-2.5,0-4.4-0.8-6-2.4
				c-0.7-0.7-1.3-1.6-1.8-2.6s-0.9-2.1-1.1-3.2c-0.3-1.1-0.4-2.1-0.4-2.9c0-0.8-0.1-1.5-0.1-2.1c0-0.3,0-0.5,0-0.8
				C1185.5,143.2,1189.1,142.5,1193.1,141.4z M1187.1,124.7c0.8-1.4,1.8-2.6,2.8-3.7c1-1,2.2-1.9,3.4-2.5c1.2-0.6,2.6-0.9,4.3-0.9
				c1.5,0,2.7,0.5,3.7,1.5s1.5,2.3,1.5,4c0,1.8-0.3,3.3-0.9,4.4c-1.2,2.3-3.3,4.3-6.2,5.9c-4,2.2-8.3,3.5-12.9,3.8
				c0.4-2.7,1.1-5.5,2.2-8.2C1185.5,127.5,1186.2,126,1187.1,124.7z"/>
			<path fill="#570732" d="M892.3,112.2c-1.6-0.6-3.6-0.9-5.9-0.9c-2.3,0-4.6,0.4-6.8,1.2c-6.6,2.4-11.7,7.6-15.1,15.3
				c-2.4,5.2-3.6,10.7-3.6,16.4c0,8.8,3.2,14.9,9.5,18.2c2.3,1.2,5.3,1.8,8.9,1.8c3.6,0,7.6-1.3,11.8-3.9c2.2-1.4,4.1-3.2,5.7-5.4
				l0.3-0.4l0.1-0.2l-0.1-0.2l-2.4-4.3l-0.2-0.4l-0.3,0.3l-0.7,0.7c-4.4,4.4-9.1,6.6-13.9,6.6c-2.5,0-4.4-0.8-6-2.4
				c-0.7-0.7-1.3-1.6-1.8-2.6s-0.9-2.1-1.1-3.2c-0.3-1.1-0.4-2.1-0.4-2.9c0-0.8-0.1-1.5-0.1-2.1c0-0.3,0-0.5,0-0.8
				c3.2-0.2,6.8-0.9,10.8-2.1c2.2-0.7,4.5-1.5,6.7-2.6s4.3-2.3,6-3.8c1.8-1.5,3.3-3.2,4.4-5.1c1.2-2,1.8-4.4,1.8-7.3
				c0-3-1.1-5.6-3.3-7.7C895.4,113.8,894,112.8,892.3,112.2z M874.9,124.7c0.8-1.4,1.8-2.6,2.8-3.7c1-1,2.2-1.9,3.4-2.5
				s2.6-0.9,4.3-0.9c1.5,0,2.7,0.5,3.7,1.5s1.5,2.3,1.5,4c0,1.8-0.3,3.3-0.9,4.4c-1.2,2.3-3.3,4.3-6.2,5.9c-4,2.2-8.3,3.5-12.9,3.8
				c0.4-2.7,1.1-5.5,2.2-8.2C873.3,127.5,874.1,126,874.9,124.7z"/>
		</g>
	</g>
</g>
<g id="Laag_2">
</g>
</svg>
