<?xml version="1.0" encoding="utf-8"?>
<!-- Generator: Adobe Illustrator 18.1.1, SVG Export Plug-In . SVG Version: 6.00 Build 0)  -->
<!DOCTYPE svg PUBLIC "-//W3C//DTD SVG 1.1//EN" "http://www.w3.org/Graphics/SVG/1.1/DTD/svg11.dtd" [
	<!ENTITY ns_flows "http://ns.adobe.com/Flows/1.0/">
	<!ENTITY ns_extend "http://ns.adobe.com/Extensibility/1.0/">
	<!ENTITY ns_ai "http://ns.adobe.com/AdobeIllustrator/10.0/">
	<!ENTITY ns_graphs "http://ns.adobe.com/Graphs/1.0/">
]>
<svg version="1.1" id="Laag_1" xmlns:x="&ns_extend;" xmlns:i="&ns_ai;" xmlns:graph="&ns_graphs;"
	 xmlns="http://www.w3.org/2000/svg" xmlns:xlink="http://www.w3.org/1999/xlink" xmlns:a="http://ns.adobe.com/AdobeSVGViewerExtensions/3.0/"
	 x="0px" y="0px" viewBox="0 0 100 58" enable-background="new 0 0 100 58" xml:space="preserve">
<g>
	<path fill="#005F9A" d="M9.2,11.1h4.5c2,0,3.5,0.3,4.4,0.9c0.9,0.6,1.4,1.5,1.4,2.8c0,0.9-0.2,1.6-0.6,2.1c-0.4,0.6-0.9,0.9-1.6,1
		v0.1c0.9,0.2,1.6,0.6,2,1.1s0.6,1.3,0.6,2.2c0,1.3-0.5,2.3-1.4,3.1c-0.9,0.7-2.2,1.1-3.9,1.1H9.2V11.1z M12.3,16.8h1.8
		c0.8,0,1.4-0.1,1.8-0.4c0.4-0.3,0.6-0.7,0.6-1.3c0-0.6-0.2-0.9-0.6-1.2c-0.4-0.2-1-0.4-1.9-0.4h-1.6V16.8z M12.3,19.2v3.8h2
		c0.8,0,1.5-0.2,1.9-0.5c0.4-0.3,0.6-0.8,0.6-1.5c0-1.2-0.9-1.8-2.6-1.8H12.3z"/>
	<path fill="#005F9A" d="M29.1,25.5L28.6,24h-0.1c-0.5,0.6-1,1.1-1.6,1.3s-1.2,0.4-2.1,0.4c-1.1,0-1.9-0.3-2.5-0.9s-0.9-1.5-0.9-2.6
		c0-1.2,0.4-2,1.2-2.6c0.8-0.6,2-0.9,3.7-0.9l1.9-0.1v-0.5c0-1.1-0.6-1.7-1.7-1.7c-0.9,0-1.9,0.3-3.1,0.8l-1-2c1.3-0.7,2.7-1,4.2-1
		c1.5,0,2.6,0.3,3.4,1c0.8,0.6,1.2,1.6,1.2,2.9v7.3H29.1z M28.2,20.4l-1.2,0c-0.9,0-1.5,0.2-2,0.5c-0.4,0.3-0.6,0.7-0.6,1.3
		c0,0.8,0.5,1.3,1.5,1.3c0.7,0,1.3-0.2,1.7-0.6s0.6-0.9,0.6-1.6V20.4z"/>
	<path fill="#005F9A" d="M44.1,25.5h-3V19c0-0.8-0.1-1.4-0.4-1.8s-0.7-0.6-1.3-0.6c-0.8,0-1.4,0.3-1.8,0.8c-0.4,0.6-0.6,1.5-0.6,2.8
		v5.2h-3v-11h2.3l0.4,1.4h0.2c0.3-0.5,0.8-0.9,1.4-1.2c0.6-0.3,1.3-0.4,2-0.4c1.3,0,2.3,0.3,2.9,1s1,1.7,1,3V25.5z"/>
	<path fill="#005F9A" d="M49.7,19.5l1.3-1.7l3.1-3.3h3.4l-4.4,4.8l4.6,6.2h-3.5L51.1,21l-1.3,1v3.4h-3V10.1h3V17L49.7,19.5
		L49.7,19.5z"/>
	<path fill="#005F9A" d="M16.2,47.7h-3.1V35.8H9.2v-2.5h10.9v2.5h-3.9V47.7z"/>
	<path fill="#005F9A" d="M27.8,36.4c0.4,0,0.7,0,1,0.1l-0.2,2.8c-0.2-0.1-0.5-0.1-0.9-0.1c-1,0-1.7,0.2-2.2,0.7
		c-0.5,0.5-0.8,1.2-0.8,2.1v5.6h-3v-11H24l0.4,1.9h0.1c0.3-0.6,0.8-1.1,1.4-1.5S27.1,36.4,27.8,36.4z"/>
	<path fill="#005F9A" d="M37.4,47.7l-0.6-1.5h-0.1c-0.5,0.6-1,1.1-1.6,1.3c-0.5,0.2-1.2,0.4-2.1,0.4c-1.1,0-1.9-0.3-2.5-0.9
		s-0.9-1.5-0.9-2.6c0-1.2,0.4-2,1.2-2.6s2-0.9,3.7-0.9l1.9-0.1v-0.5c0-1.1-0.6-1.7-1.7-1.7c-0.9,0-1.9,0.3-3.1,0.8l-1-2
		c1.3-0.7,2.7-1,4.2-1c1.5,0,2.6,0.3,3.4,1s1.2,1.6,1.2,2.9v7.3H37.4z M36.5,42.6l-1.2,0c-0.9,0-1.5,0.2-1.9,0.5
		c-0.4,0.3-0.6,0.7-0.6,1.3c0,0.8,0.5,1.3,1.5,1.3c0.7,0,1.3-0.2,1.7-0.6c0.4-0.4,0.6-0.9,0.6-1.6V42.6z"/>
	<path fill="#005F9A" d="M52.4,47.7h-3v-6.4c0-0.8-0.1-1.4-0.4-1.8s-0.7-0.6-1.3-0.6c-0.8,0-1.4,0.3-1.8,0.8
		c-0.4,0.6-0.6,1.5-0.6,2.8v5.2h-3v-11h2.3l0.4,1.4h0.2c0.3-0.5,0.8-0.9,1.4-1.2c0.6-0.3,1.3-0.4,2-0.4c1.3,0,2.3,0.3,2.9,1
		s1,1.7,1,3V47.7z"/>
	<path fill="#005F9A" d="M62.7,44.4c0,1.1-0.4,2-1.2,2.6c-0.8,0.6-2,0.9-3.5,0.9c-0.8,0-1.5-0.1-2-0.2c-0.6-0.1-1.1-0.3-1.6-0.5
		v-2.5c0.6,0.3,1.2,0.5,1.9,0.7c0.7,0.2,1.3,0.3,1.8,0.3c1.1,0,1.6-0.3,1.6-0.9c0-0.2-0.1-0.4-0.2-0.6c-0.1-0.1-0.4-0.3-0.7-0.5
		c-0.4-0.2-0.8-0.4-1.4-0.7c-0.8-0.4-1.5-0.7-1.9-1c-0.4-0.3-0.7-0.6-0.9-1s-0.3-0.9-0.3-1.4c0-1,0.4-1.7,1.1-2.3
		c0.8-0.5,1.8-0.8,3.2-0.8c1.3,0,2.6,0.3,3.9,0.9l-0.9,2.2c-0.6-0.2-1.1-0.4-1.5-0.6c-0.5-0.2-1-0.2-1.5-0.2c-0.9,0-1.3,0.2-1.3,0.7
		c0,0.3,0.1,0.5,0.4,0.7c0.3,0.2,0.9,0.5,1.9,0.9c0.9,0.3,1.5,0.7,1.9,1c0.4,0.3,0.7,0.7,0.9,1C62.7,43.4,62.7,43.8,62.7,44.4z"/>
	<path fill="#005F9A" d="M70.8,38.9h-2.6v8.8h-3v-8.8h-1.7v-1.4l1.7-0.8v-0.8c0-1.3,0.3-2.2,0.9-2.7s1.6-0.9,3-0.9
		c1,0,2,0.2,2.8,0.5l-0.8,2.2c-0.6-0.2-1.2-0.3-1.7-0.3c-0.4,0-0.7,0.1-0.9,0.4c-0.2,0.3-0.3,0.6-0.3,1v0.7h2.6V38.9z"/>
	<path fill="#005F9A" d="M77.1,47.9c-1.8,0-3.2-0.5-4.2-1.5s-1.5-2.4-1.5-4.2c0-1.8,0.5-3.3,1.4-4.3c0.9-1,2.2-1.5,3.8-1.5
		c1.6,0,2.8,0.4,3.6,1.3c0.9,0.9,1.3,2.1,1.3,3.7v1.5h-7.1c0,0.9,0.3,1.5,0.8,2s1.1,0.7,2,0.7c0.7,0,1.3-0.1,1.9-0.2
		c0.6-0.1,1.2-0.4,1.9-0.7v2.3c-0.5,0.3-1.1,0.5-1.7,0.6C78.7,47.8,77.9,47.9,77.1,47.9z M76.7,38.6c-0.6,0-1.1,0.2-1.5,0.6
		c-0.4,0.4-0.6,1-0.6,1.7h4.2c0-0.7-0.2-1.3-0.6-1.7C77.8,38.8,77.3,38.6,76.7,38.6z"/>
	<path fill="#005F9A" d="M89.8,36.4c0.4,0,0.7,0,1,0.1l-0.2,2.8c-0.2-0.1-0.5-0.1-0.9-0.1c-1,0-1.7,0.2-2.2,0.7
		c-0.5,0.5-0.8,1.2-0.8,2.1v5.6h-3v-11h2.3l0.4,1.9h0.1c0.3-0.6,0.8-1.1,1.4-1.5S89.1,36.4,89.8,36.4z"/>
</g>
<g>
	<path fill="#005F9A" d="M94,4c1.1,0,2,0.9,2,2v46c0,1.1-0.9,2-2,2H6c-1.1,0-2-0.9-2-2V6c0-1.1,0.9-2,2-2H94 M94,0H6
		C2.7,0,0,2.7,0,6v46c0,3.3,2.7,6,6,6h88c3.3,0,6-2.7,6-6V6C100,2.7,97.3,0,94,0L94,0z"/>
</g>
</svg>
